<?xml version="1.0" encoding="UTF-8"?> <!-- Generator: Adobe Illustrator 24.1.2, SVG Export Plug-In . SVG Version: 6.00 Build 0) --> <svg xmlns="http://www.w3.org/2000/svg" xmlns:xlink="http://www.w3.org/1999/xlink" version="1.1" id="Layer_1" x="0px" y="0px" viewBox="0 0 512 71" style="enable-background:new 0 0 512 71;" xml:space="preserve"> <style type="text/css"> .st0{fill-rule:evenodd;clip-rule:evenodd;fill:#262626;stroke:url(#SVGID_1_);stroke-miterlimit:10;} .st1{fill-rule:evenodd;clip-rule:evenodd;fill:#CEA95D;} .st2{fill-rule:evenodd;clip-rule:evenodd;fill:#FFFFFF;} .st3{fill:#FFFFFF;} </style> <g id="Layer_1_1_"> </g> <g id="Layer_3"> <linearGradient id="SVGID_1_" gradientUnits="userSpaceOnUse" x1="0.5" y1="36.4" x2="511.5" y2="36.4" gradientTransform="matrix(1 0 0 -1 0 72)"> <stop offset="0" style="stop-color:#D1AA6A"></stop> <stop offset="0.1699" style="stop-color:#CEA767"></stop> <stop offset="0.3063" style="stop-color:#C59E5D"></stop> <stop offset="0.4307" style="stop-color:#B68E4C"></stop> <stop offset="0.5" style="stop-color:#AA823F"></stop> <stop offset="0.5514" style="stop-color:#B28B46"></stop> <stop offset="0.681" style="stop-color:#C29C53"></stop> <stop offset="0.8231" style="stop-color:#CBA65B"></stop> <stop offset="1" style="stop-color:#CEA95D"></stop> </linearGradient> <path class="st0" d="M477.5,70.1h-443C16,70.1,1,55.1,1,36.6v-2C1,16.1,16,1.1,34.5,1.1h443c18.5,0,33.5,15,33.5,33.5v2 C511,55.1,496,70.1,477.5,70.1z"></path> </g> <g id="Layer_2_1_"> <g> <g> <g> <path class="st1" d="M60,17.1c0.6,0,1.1,0,1.4-0.1c0.4-0.1,0.5-0.2,0.5-0.3c0-0.1,0-0.2-0.1-0.2c0,0-0.1-0.1-0.2-0.1 c0,0-0.1,0-0.3,0c-1,0.1-1.9,0.1-2.9,0.1c-0.2,0-0.6,0-1.2,0c-0.2,0-0.4,0-0.6,0l-1.7,3.3c-5.1,10-7.8,14.9-8,14.9 c-0.1,0-0.2-0.2-0.4-0.6c-0.1-0.3-0.3-0.5-0.4-0.7c-0.6-1-1.3-2.5-2.3-4.3c-3.3-6.1-5.4-10.4-6.3-12.7c-0.3,0-0.8,0-1.4,0.1 c-0.6,0-1,0.1-1.3,0.1c-1.1,0-2.2,0-3.3-0.1c-0.2,0-0.4,0-0.4,0c-0.2,0-0.3,0-0.3,0l-0.1,0.1c0,0.1,0.3,0.2,0.9,0.3 c0.6,0.1,1.1,0.2,1.6,0.4c0.7,0.3,1.1,0.7,1.4,1.4c0.3,0.7,0.4,1.8,0.4,3.5c0,1.4,0,3-0.1,4.7s-0.2,3.5-0.3,5.4v0.3 c-0.2,3.3-0.6,5.2-1.1,5.7c-0.4,0.4-1,0.7-1.8,0.9s-1.1,0.3-1.1,0.4c0,0.1,0,0.2,0.1,0.2h0.1c0,0,0.2,0,0.4,0 c1.2-0.1,2.3-0.2,3.5-0.2c1.1,0,2.2,0,3.3,0.1c0.2,0,0.3,0,0.4,0H39c0.1,0,0.1,0,0.2,0l0.1-0.1c0-0.1-0.3-0.3-0.9-0.4 c-0.4-0.1-0.7-0.2-1-0.2c-0.6-0.2-1-0.4-1.2-0.9c-0.2-0.4-0.3-1.4-0.3-2.9v-0.7c0-1.9,0-4.1,0.2-6.5c0.1-2.4,0.3-5,0.5-7.8h0.2 c2.1,4,4,7.6,5.6,10.7s2.6,5,2.9,5.7c0.3,0.6,0.5,1.2,0.7,1.9s0.4,1,0.5,1s0.4-0.6,0.9-1.8c2.5-5.8,5.5-11.7,8.9-17.7h0.2 c0,1.5,0.1,3,0.1,4.5s0,2.9,0,4.4c0,0.7,0,1.5,0,2.5c0,1,0,1.7,0,2c0,1.7-0.1,2.8-0.3,3.5s-0.6,1.2-1.1,1.5 c-0.4,0.3-0.9,0.4-1.5,0.5s-0.8,0.2-0.8,0.4c0,0.1,0,0.2,0.1,0.3c0,0,0.1,0,0.2,0c0.1,0,0.2,0,0.5,0c1.7-0.2,3.5-0.3,5.3-0.3 c1,0,1.9,0,2.8,0.1c0.2,0,0.3,0,0.3,0c0.1,0,0.2,0,0.2-0.1s0.1-0.1,0.1-0.2c0-0.2-0.3-0.3-1-0.3s-1.2-0.3-1.4-0.6 c-0.4-0.5-0.6-1.8-0.8-3.8c-0.1-2-0.2-5.9-0.2-11.5c0-2.6,0.1-4.2,0.3-4.9C59,17.5,59.4,17.1,60,17.1z"></path> <path class="st1" d="M93.8,36.5c2.4,2.2,5.5,3.3,9.3,3.3c1.3,0,3.2-0.3,5.6-1c0.6-0.2,1-0.3,1.2-0.3c0.1-0.9,0.3-1.8,0.6-2.7 c0.3-0.9,0.4-1.5,0.4-1.6c0,0,0-0.1-0.1-0.1c0,0-0.1,0-0.2,0c-0.2,0-0.3,0.2-0.5,0.5c-0.1,0.3-0.3,0.6-0.4,0.9 c-0.7,1.2-1.5,2.1-2.6,2.7c-1.1,0.6-2.4,0.9-4.1,0.9c-2.9,0-5.3-1.1-7.2-3.2c-1.9-2.2-2.9-4.9-2.9-8.2c0-3.1,0.9-5.7,2.6-7.7 s4-3,6.7-3c0.9,0,2,0.1,3,0.4c1.1,0.3,2,0.7,2.9,1.2c0.5,0.3,0.8,0.6,1,0.9s0.3,0.7,0.3,1.3V21v0.3c0,0.1,0,0.3,0.1,0.3 c0,0,0.1,0.1,0.2,0.1s0.2,0,0.3-0.1c0-0.1,0.1-0.4,0.1-0.8c0.1-1.2,0.3-2.3,0.6-3.2c0-0.1,0-0.2,0-0.3c0-0.1,0-0.1,0-0.2 c0,0-0.1-0.1-0.2-0.1c0,0-0.1,0-0.3,0.1s-0.4,0.1-0.6,0.1s-1-0.2-2.4-0.5c-1.5-0.3-2.9-0.5-4.3-0.5c-3.7,0-6.8,1.1-9.2,3.3 c-2.4,2.2-3.6,5-3.6,8.4C90.2,31.4,91.3,34.3,93.8,36.5z"></path> <path class="st1" d="M77.1,28.1c1.5-0.5,2.7-1.2,3.6-2.2s1.3-2.1,1.3-3.4c0-1.9-0.7-3.5-2.2-4.7S76.4,16,74,16 c-0.7,0-1.8,0.1-3.2,0.3s-2.4,0.3-3.1,0.3c-0.5,0-1.1,0-1.6-0.1c-0.6,0-0.8-0.1-0.8-0.1c-0.1,0-0.2,0-0.3,0.1 c-0.1,0-0.1,0.1-0.1,0.3c0,0.2,0.3,0.3,0.8,0.4c0.5,0,0.9,0.2,1.2,0.3c0.3,0.2,0.5,0.9,0.6,2s0.2,3.6,0.2,7.4v3.3v4.2 c0,1.9-0.1,3.1-0.3,3.6c-0.2,0.6-0.6,0.9-1,1.1c-0.2,0.1-0.4,0.1-0.6,0.2c-0.3,0.1-0.5,0.2-0.5,0.4c0,0.1,0,0.2,0,0.2h0.1 c0,0,0.2,0,0.4,0c1-0.2,2-0.3,3-0.3c0.9,0,1.7,0.1,2.6,0.2c0.9,0.1,1.4,0.2,1.4,0.2s0.1,0,0.1-0.1c0,0,0-0.1,0-0.2 c0-0.2-0.2-0.3-0.7-0.4c-0.5-0.1-0.9-0.2-1.3-0.4c-0.3-0.1-0.5-0.6-0.6-1.3s-0.2-2.4-0.2-5v-1.2v-0.7c0-0.2,0-0.6,0-1.1 s0-0.9,0-1.2c0.7,0.1,1.3,0.2,1.8,0.2c0.6,0,1.1,0.1,1.6,0.1h0.6c17.1,33,60.2,32.6,61.9,12.3C135,52.2,102.9,64,77.1,28.1z M73.1,27.7c-0.5,0-0.9,0-1.4-0.1s-1-0.2-1.6-0.3c0-2.9,0-5.2,0.1-6.7c0-1.5,0.1-2.4,0.2-2.7c0.1-0.4,0.3-0.7,0.9-0.9 c0.5-0.2,1.2-0.3,2-0.3c1.8,0,3.3,0.6,4.4,1.7s1.6,2.6,1.6,4.4c0,1.5-0.5,2.7-1.6,3.6C76.5,27.3,75,27.7,73.1,27.7z"></path> <path class="st1" d="M116,39.8c0.4,0,0.8,0,1.2,0c0.6,0,1.1,0,1.4,0c0.4,0,0.8,0,1.3,0c0.4,0,0.7,0,1,0s0.7,0,1.2,0s0.9,0,1.3,0 c0.9,0.1,2.6-0.4,0.1-0.7c-0.5,0-0.8-0.1-1.1-0.2c-0.5-0.2-0.8-0.4-0.9-0.8c-0.1-0.3-0.2-0.9-0.2-1.8c0-1,0-2-0.1-2.9 c0-0.9,0-3.1,0-6.5c0-5,0.2-7.9,0.6-8.6c0.2-0.3,0.5-0.6,0.9-0.7c0.2-0.1,0.6-0.1,1.1-0.1c1.4-0.1,1.2-0.9,0-0.8 c-0.6,0-1.3,0.1-2,0.1c-1.1,0-1.7,0.1-1.9,0.1c-0.4,0-1.3,0-2.5-0.1c-0.2,0-0.7,0-1.3-0.1c-1.1-0.1-2,0.4,0,0.8 c0.5,0.1,0.9,0.1,1.2,0.2c0.5,0.2,0.9,0.5,1,0.9c0.2,0.4,0.3,1.1,0.3,2c0.1,3.4,0.2,6,0.2,7.8c0,2,0,3.9-0.1,5.7s-0.2,3-0.5,3.7 c-0.2,0.5-0.5,0.9-0.9,1.1c-0.3,0.2-0.9,0.3-1.6,0.4C114.7,39.3,114.6,39.8,116,39.8z"></path> <path class="st1" d="M33.6,25.2c-7.8,2.1-13.5,8.1-13.4,13.6c0.7-3.5,3.3-8.4,13.5-10.9C33.7,27.3,33.6,25.6,33.6,25.2z"></path> </g> <path class="st2" d="M110.1,24.8c-11.6,2.1-22.6,9-32.1,13.1s-23.2,12-32,13.6c-8.1,1.8-24.4-0.3-25.9-11.7 c0.2,13.3,17.9,16.6,26,14.7c7.8-1,21.5-8.4,32-13.4c10.6-4.9,22.7-11.8,32-13.4c13.5-2.4,25.4,4.1,25.9,12 C136.4,33.1,128,22,110.1,24.8z"></path> </g> </g> <g> <path class="st3" d="M153.5,27.6l1.2,10l7.6-10h3.2V28c-0.7,0-1.1,0.1-1.2,0.1c-0.2,0.1-0.4,0.2-0.6,0.4c-0.2,0.3-0.4,0.7-0.6,1.4 l-2.4,7.9c-0.1,0.5-0.2,0.9-0.2,1.1c0,0.2,0.1,0.4,0.2,0.5c0.3,0.2,0.7,0.3,1.2,0.3h0.2l-0.1,0.4h-5.5l0.1-0.4h0.3 c0.5,0,0.9-0.1,1.1-0.2c0.1-0.1,0.4-0.2,0.5-0.6c0.1-0.3,0.4-0.9,0.7-1.8l2.2-7.2L153.7,40h-0.4l-1.2-10.1l-2.3,7.7 c-0.2,0.7-0.3,1.1-0.3,1.3s0.1,0.4,0.3,0.5c0.1,0.1,0.6,0.2,1.2,0.2l-0.1,0.4h-4.3l0.1-0.4h0.2c0.7,0,1.1-0.1,1.4-0.5 c0.2-0.2,0.4-0.7,0.7-1.5l2.9-9.3c-0.2-0.2-0.4-0.4-0.6-0.4c-0.2-0.1-0.5-0.1-1.1-0.1l0.1-0.4L153.5,27.6L153.5,27.6z M244.3,40.1 l-2-6.1c-0.4,0-1,0-1.5-0.1l-1.2,3.8c-0.1,0.5-0.2,0.9-0.2,1.2c0,0.2,0.1,0.4,0.3,0.6c0.1,0.1,0.6,0.2,1.2,0.2l-0.1,0.4h-5.1 l0.1-0.4c0.4,0,0.8-0.1,1-0.1c0.3-0.1,0.4-0.2,0.6-0.4c0.2-0.2,0.4-0.8,0.7-1.5l2.3-7.5c0.1-0.5,0.2-0.9,0.2-1.2 c0-0.3-0.1-0.5-0.4-0.7c-0.2-0.2-0.6-0.3-1.1-0.3l0.1-0.4h4.2c1.4,0,2.5,0.3,3.1,0.8s1,1.2,1,2s-0.4,1.5-1,2.2 c-0.7,0.7-1.5,1.1-2.6,1.3l1.2,3.7c0.3,0.9,0.6,1.5,1,1.8c0.3,0.3,0.8,0.4,1.5,0.5l-0.1,0.4h-3v-0.2H244.3z M240.9,33.3 c0.4,0,0.7,0.1,1.1,0.1c1.1,0,2-0.3,2.6-0.9c0.7-0.6,1-1.3,1-2.2c0-0.7-0.2-1.2-0.6-1.5c-0.4-0.4-1-0.5-1.8-0.5 c-0.2,0-0.4,0-0.7,0.1L240.9,33.3z M341.1,27.3l-1,4h-0.4v-1c-0.1-0.4-0.1-0.7-0.2-1s-0.3-0.5-0.5-0.7s-0.6-0.4-0.9-0.5 s-0.7-0.1-1.2-0.1c-1.2,0-2.2,0.3-3.1,0.9c-1.1,0.7-2,1.8-2.6,3.2c-0.5,1.2-0.8,2.3-0.8,3.5s0.4,2.2,1.1,2.9s1.7,1.1,2.9,1.1 c0.9,0,1.7-0.2,2.4-0.6c0.7-0.4,1.3-1,1.9-1.8h0.4c-0.7,1.1-1.5,1.9-2.3,2.3c-0.9,0.5-1.9,0.8-3.1,0.8c-1.1,0-2-0.2-2.8-0.7 c-0.9-0.4-1.5-1-1.9-1.8s-0.6-1.6-0.6-2.5c0-1.3,0.4-2.6,1.1-3.9c0.7-1.3,1.8-2.3,3.1-3.1c1.3-0.7,2.7-1.1,4-1.1 c0.7,0,1.4,0.1,2.1,0.4c0.4,0.1,0.6,0.1,0.7,0.1s0.3,0,0.4-0.1s0.3-0.3,0.6-0.5L341.1,27.3L341.1,27.3z M414.2,39.7l-0.1,0.4h-5.4 l0.1-0.4c0.5,0,0.9-0.1,1-0.1c0.3-0.1,0.5-0.3,0.7-0.4c0.2-0.2,0.4-0.8,0.7-1.5l2.3-7.5c0.2-0.7,0.3-1.1,0.3-1.4 c0-0.1-0.1-0.3-0.1-0.4c-0.1-0.1-0.2-0.2-0.4-0.3c-0.1,0-0.5-0.1-1-0.1l0.1-0.4h5l-0.1,0.4c-0.4,0-0.7,0-1,0.1s-0.5,0.3-0.7,0.5 s-0.4,0.7-0.6,1.5l-2.3,7.5c-0.2,0.7-0.3,1.2-0.3,1.3s0.1,0.3,0.1,0.4c0.1,0.1,0.2,0.1,0.4,0.2C413.3,39.6,413.7,39.6,414.2,39.7"></path> <path class="st3" d="M173,31.7l-1.9,6.2l-0.2,0.9c0,0.1,0,0.1,0,0.1c0,0.1,0,0.2,0.1,0.3s0.1,0.1,0.2,0.1c0.1,0,0.1,0,0.3-0.1 c0.3-0.2,0.6-0.5,1-1.1l0.3,0.2c-0.4,0.6-0.9,1.1-1.4,1.5s-0.9,0.5-1.3,0.5c-0.3,0-0.5-0.1-0.6-0.2c-0.1-0.1-0.2-0.3-0.2-0.6 s0.1-0.7,0.2-1.2l0.2-0.7c-0.9,1-1.6,1.8-2.3,2.2c-0.5,0.3-1,0.4-1.5,0.4s-0.9-0.2-1.2-0.6c-0.4-0.4-0.5-0.9-0.5-1.5 c0-1,0.3-2,0.9-3.1c0.6-1,1.4-1.9,2.3-2.6c0.7-0.5,1.5-0.7,2-0.7c0.4,0,0.7,0.1,1,0.3c0.3,0.2,0.4,0.5,0.6,1l0.4-1.1L173,31.7z M169.5,32.2c-0.4,0-0.9,0.2-1.3,0.5c-0.7,0.5-1.2,1.3-1.8,2.3c-0.5,1-0.7,2-0.7,2.8c0,0.4,0.1,0.7,0.3,1s0.5,0.4,0.7,0.4 c0.7,0,1.5-0.5,2.3-1.5c1.1-1.3,1.7-2.6,1.7-4c0-0.5-0.1-0.9-0.3-1.1C170.2,32.3,169.9,32.2,169.5,32.2 M177.9,31.7l-1.3,4.2 c1.2-1.7,2.1-2.9,2.8-3.4s1.2-0.7,1.8-0.7c0.3,0,0.6,0.1,0.8,0.3c0.2,0.2,0.3,0.4,0.3,0.8s-0.1,0.9-0.3,1.5l-1.2,3.9 c-0.1,0.4-0.2,0.7-0.2,0.8s0.1,0.1,0.1,0.2c0.1,0.1,0.1,0.1,0.2,0.1c0.1,0,0.1-0.1,0.3-0.1c0.4-0.2,0.7-0.7,1.2-1.2l0.3,0.1 c-0.6,0.8-1.2,1.4-1.7,1.8c-0.4,0.2-0.7,0.4-1,0.4c-0.2,0-0.4-0.1-0.6-0.2c-0.1-0.1-0.2-0.4-0.2-0.6c0-0.3,0.1-0.8,0.3-1.5 l1.2-3.7c0.1-0.4,0.2-0.8,0.2-1.1c0-0.1-0.1-0.2-0.1-0.3c-0.1-0.1-0.2-0.1-0.3-0.1c-0.2,0-0.4,0.1-0.7,0.2c-0.5,0.3-1,0.7-1.5,1.4 s-1,1.5-1.6,2.4c-0.3,0.5-0.6,1.1-0.8,1.7l-0.4,1.5H174l1.8-5.8c0.2-0.7,0.3-1.1,0.3-1.2s0-0.2-0.1-0.4c-0.1-0.1-0.3-0.1-0.4-0.1 c-0.1,0-0.2,0.1-0.4,0.1l-0.4,0.1l-0.1-0.3L177.9,31.7z M185.8,36.6c-0.1,0.3-0.1,0.5-0.1,0.7c0,0.5,0.2,1,0.6,1.4 c0.4,0.4,0.9,0.6,1.5,0.6c0.4,0,0.9-0.1,1.3-0.3c0.4-0.1,1-0.6,1.9-1.2l0.2,0.3c-1.5,1.5-3,2.2-4.4,2.2c-1,0-1.6-0.3-2.1-0.8 c-0.5-0.6-0.7-1.2-0.7-1.8c0-0.9,0.3-1.8,0.9-2.9c0.6-1,1.3-1.7,2.3-2.2c0.9-0.5,1.8-0.7,2.8-0.7c0.7,0,1.2,0.1,1.5,0.4 c0.4,0.3,0.5,0.6,0.5,0.9c0,0.5-0.2,1-0.7,1.5c-0.6,0.6-1.4,1.1-2.5,1.5C188.2,36.2,187.1,36.4,185.8,36.6 M185.9,36.1 c1-0.1,1.7-0.3,2.3-0.6c0.8-0.3,1.4-0.7,1.8-1.2c0.4-0.4,0.6-1,0.6-1.3c0-0.2-0.1-0.4-0.2-0.6c-0.1-0.1-0.4-0.2-0.7-0.2 c-0.7,0-1.4,0.3-2.1,1S186.2,34.9,185.9,36.1 M196.7,28.1c0.3,0,0.5,0.1,0.7,0.3c0.2,0.2,0.3,0.4,0.3,0.7c0,0.3-0.1,0.5-0.3,0.7 c-0.1,0.1-0.4,0.3-0.7,0.3s-0.5-0.1-0.7-0.3c-0.2-0.2-0.3-0.4-0.3-0.7c0-0.2,0.1-0.4,0.3-0.7C196.2,28.2,196.5,28.1,196.7,28.1 M196.9,31.7l-2.6,8.2c-0.4,1.5-1,2.6-1.8,3.1c-0.8,0.7-1.6,1-2.6,1c-0.4,0-0.7-0.1-1-0.2c-0.2-0.2-0.3-0.4-0.3-0.7 c0-0.2,0.1-0.4,0.2-0.5c0.1-0.1,0.4-0.2,0.5-0.2c0.2,0,0.4,0.1,0.5,0.1c0.1,0.1,0.2,0.2,0.2,0.3s-0.1,0.3-0.2,0.4 c-0.1,0.1-0.1,0.1-0.1,0.1v0.1c0.1,0,0.1,0.1,0.1,0.1h0.2c0.5,0,1-0.1,1.3-0.4c0.4-0.3,0.7-1,1-1.9l2.2-7c0.2-0.7,0.3-1.1,0.3-1.2 c0-0.1-0.1-0.3-0.2-0.4c-0.1-0.1-0.3-0.2-0.5-0.2c-0.1,0-0.1,0.1-0.3,0.1c-0.1,0-0.2,0-0.4,0.1v-0.3L196.9,31.7z M206.8,34.6 c0,1-0.2,1.8-0.7,2.7s-1.2,1.6-2.1,2.1c-1,0.5-1.8,0.8-2.6,0.8c-0.9,0-1.6-0.2-2.1-0.8c-0.6-0.5-0.9-1.2-0.9-2 c0-0.9,0.3-1.8,0.8-2.7s1.2-1.6,2.2-2.2c0.9-0.5,1.8-0.7,2.6-0.7s1.5,0.2,2,0.7C206.6,33,206.8,33.8,206.8,34.6 M205.3,34 c0-0.6-0.1-1-0.4-1.3c-0.3-0.3-0.7-0.4-1.2-0.4c-1,0-1.8,0.7-2.6,2c-0.7,1.2-1.2,2.6-1.2,3.8c0,0.6,0.1,1,0.5,1.3 c0.3,0.3,0.7,0.5,1.2,0.5c1,0,1.8-0.7,2.6-1.9C204.8,36.6,205.3,35.3,205.3,34 M223.2,27l-3.4,10.8c-0.1,0.6-0.3,1-0.3,1.2 c0,0.1,0.1,0.1,0.1,0.2c0.1,0.1,0.1,0.1,0.1,0.1c0.1,0,0.2,0,0.3-0.1c0.2-0.1,0.6-0.5,1.1-1.1l0.3,0.2c-0.4,0.6-1,1.1-1.4,1.5 c-0.5,0.4-0.9,0.6-1.3,0.6c-0.2,0-0.4-0.1-0.6-0.2c-0.1-0.1-0.2-0.4-0.2-0.7c0-0.4,0.1-0.8,0.3-1.4l0.4-1.2 c-1,1.4-1.8,2.3-2.6,2.9c-0.5,0.4-1,0.6-1.5,0.6s-1-0.2-1.2-0.7c-0.4-0.4-0.6-1-0.6-1.7c0-0.9,0.3-1.9,1-2.9 c0.6-1,1.4-1.8,2.4-2.5c0.8-0.5,1.5-0.7,2.2-0.7c0.4,0,0.7,0.1,1,0.1c0.2,0.1,0.5,0.4,0.7,0.7l1-3.1c0.1-0.2,0.1-0.4,0.1-0.5 c0.1-0.3,0.1-0.4,0.1-0.6c0-0.1,0-0.2-0.1-0.4c-0.1-0.1-0.3-0.1-0.5-0.1c-0.1,0-0.4,0.1-0.7,0.1v-0.4L223.2,27z M219.7,33.5 c0-0.4-0.1-0.7-0.4-1c-0.2-0.2-0.5-0.4-0.9-0.4c-0.8,0-1.7,0.7-2.5,1.9c-0.9,1.2-1.3,2.5-1.3,3.7c0,0.4,0.1,0.8,0.3,1 c0.2,0.3,0.5,0.4,0.8,0.4c0.7,0,1.5-0.7,2.5-2C219.2,35.8,219.7,34.5,219.7,33.5 M224.8,36.6c-0.1,0.3-0.1,0.5-0.1,0.7 c0,0.5,0.2,1,0.6,1.4c0.4,0.4,1,0.6,1.5,0.6c0.4,0,0.9-0.1,1.3-0.3c0.4-0.1,1.1-0.6,1.9-1.2l0.1,0.3c-1.5,1.5-3,2.2-4.3,2.2 c-1,0-1.6-0.3-2.1-0.8c-0.5-0.6-0.7-1.2-0.7-1.8c0-0.9,0.3-1.8,0.9-2.9c0.6-1,1.3-1.7,2.2-2.2s1.8-0.7,2.8-0.7 c0.7,0,1.2,0.1,1.5,0.4c0.4,0.3,0.5,0.6,0.5,0.9c0,0.5-0.2,1-0.6,1.5c-0.6,0.6-1.4,1.1-2.5,1.5C227.1,36.2,226.1,36.4,224.8,36.6 M224.9,36.1c1-0.1,1.7-0.3,2.3-0.6c0.8-0.3,1.4-0.7,1.8-1.2c0.4-0.4,0.6-1,0.6-1.3c0-0.2-0.1-0.4-0.2-0.6 c-0.2-0.1-0.4-0.2-0.7-0.2c-0.7,0-1.3,0.3-2.1,1C225.7,33.9,225.1,34.9,224.9,36.1 M250.6,36.6c-0.1,0.3-0.1,0.5-0.1,0.7 c0,0.5,0.2,1,0.6,1.4c0.4,0.4,0.9,0.6,1.5,0.6c0.4,0,0.9-0.1,1.3-0.3c0.4-0.1,1.1-0.6,1.9-1.2l0.2,0.3c-1.5,1.5-3,2.2-4.4,2.2 c-0.9,0-1.6-0.3-2.1-0.8c-0.4-0.6-0.7-1.2-0.7-1.8c0-0.9,0.3-1.8,0.9-2.9c0.6-1,1.3-1.7,2.2-2.2s1.8-0.7,2.8-0.7 c0.7,0,1.2,0.1,1.5,0.4c0.4,0.3,0.5,0.6,0.5,0.9c0,0.5-0.2,1-0.7,1.5c-0.6,0.6-1.4,1.1-2.5,1.5C252.8,36.2,251.8,36.4,250.6,36.6 M250.6,36.1c1-0.1,1.8-0.3,2.3-0.6c0.8-0.3,1.4-0.7,1.8-1.2c0.4-0.4,0.6-1,0.6-1.3c0-0.2-0.1-0.4-0.2-0.6s-0.4-0.2-0.7-0.2 c-0.7,0-1.3,0.3-2.1,1C251.5,33.9,250.9,34.9,250.6,36.1 M264.6,38c-0.7,0.8-1.4,1.3-2,1.7c-0.7,0.4-1.4,0.6-2.1,0.6 c-0.9,0-1.6-0.2-2.1-0.7s-0.8-1.1-0.8-2c0-1,0.3-1.9,0.8-2.8c0.6-0.9,1.3-1.7,2.2-2.2c1-0.6,1.8-0.8,2.7-0.8 c0.7,0,1.2,0.1,1.6,0.4c0.4,0.3,0.5,0.6,0.5,1s-0.1,0.7-0.4,1c-0.1,0.2-0.4,0.3-0.7,0.3c-0.1,0-0.4,0-0.5-0.1s-0.2-0.3-0.2-0.4 c0-0.1,0.1-0.2,0.1-0.3c0.1-0.1,0.1-0.2,0.3-0.4c0.1-0.1,0.2-0.2,0.3-0.3c0.1-0.1,0.1-0.1,0.1-0.2c0-0.1-0.1-0.2-0.1-0.4 c-0.1-0.1-0.4-0.1-0.8-0.1c-0.6,0-1.2,0.2-1.9,0.7c-0.6,0.4-1.1,1-1.6,1.8c-0.5,1-0.8,1.9-0.8,2.9c0,0.6,0.1,1.1,0.5,1.5 s0.9,0.5,1.5,0.5c0.5,0,1-0.1,1.5-0.4c0.5-0.3,1-0.7,1.6-1.3H264.6z M275,32l-1.7,5.5c-0.2,0.8-0.4,1.3-0.4,1.5 c0,0.1,0,0.2,0.1,0.2c0.1,0.1,0.1,0.1,0.1,0.1s0.2-0.1,0.4-0.1c0.1-0.1,0.5-0.4,1-1.1l0.3,0.2c-0.5,0.7-1,1.3-1.6,1.7 c-0.4,0.2-0.7,0.4-1,0.4c-0.2,0-0.4-0.1-0.6-0.2s-0.2-0.3-0.2-0.5s0-0.5,0.1-0.8c0.1-0.4,0.4-1.5,0.9-3c-1.1,1.8-2,2.9-2.7,3.6 s-1.5,1-2,1c-0.3,0-0.6-0.1-0.7-0.3c-0.2-0.2-0.3-0.4-0.3-0.7c0-0.4,0.1-1.2,0.4-2.1l0.8-2.9c0.2-0.7,0.3-1.1,0.3-1.2 c0-0.1,0-0.1-0.1-0.2C268,33,268,33,267.9,33s-0.3,0-0.4,0.1s-0.4,0.4-1,1l-0.3-0.2c0.5-0.7,1-1.2,1.5-1.5 c0.4-0.3,0.8-0.4,1.2-0.4c0.2,0,0.4,0.1,0.6,0.1c0.1,0.1,0.2,0.3,0.2,0.6s-0.1,1-0.4,1.8l-1,3c-0.2,0.8-0.4,1.3-0.4,1.5 c0,0.1,0.1,0.2,0.1,0.3c0.1,0.1,0.1,0.1,0.3,0.1c0.2,0,0.5-0.1,0.8-0.3c0.4-0.2,0.8-0.7,1.4-1.4s1-1.3,1.4-2s0.7-1.5,1.2-2.9 l0.2-0.7L275,32L275,32z M276.6,32.2l3.4-0.4l-1.4,4.5c1.1-1.8,2.2-3.1,3.1-3.9c0.5-0.4,1-0.6,1.2-0.6s0.4,0,0.5,0.1 c0.1,0.1,0.1,0.3,0.1,0.5c0,0.4-0.1,0.8-0.4,1.2c-0.1,0.3-0.4,0.4-0.7,0.4c-0.1,0-0.3,0-0.4-0.1s-0.1-0.2-0.2-0.4 c0-0.1-0.1-0.2-0.1-0.2c-0.1,0-0.1-0.1-0.2-0.1s-0.2,0-0.3,0.1c-0.1,0.1-0.4,0.4-0.7,0.7c-0.6,0.6-1.2,1.4-1.8,2.3 c-0.3,0.4-0.5,0.8-0.7,1.4c-0.3,0.7-0.4,1.1-0.5,1.2l-0.3,1.2h-1.5l1.8-5.7c0.2-0.7,0.3-1.2,0.3-1.5c0-0.1,0-0.2-0.1-0.3 s-0.3-0.1-0.5-0.1c-0.1,0-0.4,0-0.7,0.1v-0.4H276.6z M290.5,31.7l-0.6,2.8h-0.4c0-0.8-0.2-1.4-0.5-1.8c-0.4-0.4-0.7-0.5-1.2-0.5 c-0.4,0-0.7,0.1-1,0.3c-0.2,0.2-0.4,0.4-0.4,0.7c0,0.1,0.1,0.4,0.1,0.5c0.1,0.2,0.3,0.4,0.6,0.8c0.8,0.9,1.4,1.5,1.6,2 c0.2,0.4,0.4,0.9,0.4,1.2c0,0.7-0.3,1.2-0.9,1.7c-0.5,0.5-1.2,0.7-2.1,0.7c-0.4,0-1-0.1-1.6-0.3c-0.2-0.1-0.4-0.1-0.5-0.1 c-0.3,0-0.5,0.1-0.7,0.4H283l0.6-3h0.4c0.1,1,0.2,1.6,0.6,2s0.9,0.6,1.5,0.6c0.5,0,0.9-0.1,1.2-0.4c0.3-0.3,0.4-0.6,0.4-1 c0-0.2-0.1-0.4-0.1-0.7c-0.1-0.4-0.6-0.9-1.1-1.5c-0.6-0.7-1-1.2-1.1-1.5s-0.3-0.7-0.3-1c0-0.6,0.2-1.1,0.7-1.5 c0.4-0.4,1.1-0.6,1.8-0.6c0.2,0,0.4,0,0.6,0c0.1,0,0.3,0.1,0.6,0.2c0.3,0.1,0.5,0.2,0.7,0.2c0.3,0,0.5-0.1,0.7-0.4L290.5,31.7 L290.5,31.7z M300.1,34.6c0,1-0.2,1.8-0.7,2.7s-1.2,1.6-2.2,2.1c-0.9,0.5-1.8,0.8-2.7,0.8c-0.9,0-1.5-0.2-2.1-0.8 c-0.6-0.5-0.8-1.2-0.8-2c0-0.9,0.3-1.8,0.8-2.7c0.6-0.9,1.2-1.6,2.2-2.2c0.9-0.5,1.8-0.7,2.6-0.7c0.9,0,1.5,0.2,2,0.7 C299.8,33,300.1,33.8,300.1,34.6 M298.5,34c0-0.6-0.1-1-0.4-1.3s-0.7-0.4-1.2-0.4c-0.9,0-1.8,0.7-2.6,2c-0.8,1.2-1.2,2.6-1.2,3.8 c0,0.6,0.1,1,0.5,1.3c0.3,0.3,0.7,0.5,1.2,0.5c1,0,1.8-0.7,2.6-1.9C298.1,36.6,298.5,35.3,298.5,34 M308,31.7l-0.6,2.8H307 c-0.1-0.8-0.2-1.4-0.6-1.8c-0.4-0.4-0.7-0.5-1.2-0.5c-0.4,0-0.7,0.1-1,0.3c-0.2,0.2-0.4,0.4-0.4,0.7c0,0.1,0.1,0.4,0.1,0.5 c0.1,0.2,0.3,0.4,0.7,0.8c0.8,0.9,1.4,1.5,1.6,2c0.2,0.4,0.4,0.9,0.4,1.2c0,0.7-0.3,1.2-0.9,1.7c-0.5,0.5-1.2,0.7-2.1,0.7 c-0.5,0-1-0.1-1.6-0.3c-0.2-0.1-0.4-0.1-0.5-0.1c-0.3,0-0.5,0.1-0.7,0.4h-0.2l0.6-3h0.4c0,1,0.2,1.6,0.7,2 c0.4,0.4,0.9,0.6,1.5,0.6c0.5,0,0.9-0.1,1.2-0.4c0.3-0.3,0.4-0.6,0.4-1c0-0.2-0.1-0.4-0.1-0.7c-0.1-0.4-0.6-0.9-1.1-1.5 c-0.6-0.7-1-1.2-1.1-1.5s-0.3-0.7-0.3-1c0-0.6,0.2-1.1,0.7-1.5c0.5-0.4,1.1-0.6,1.8-0.6c0.2,0,0.4,0,0.6,0c0.1,0,0.3,0.1,0.6,0.2 c0.4,0.1,0.6,0.2,0.7,0.2c0.3,0,0.5-0.1,0.7-0.4L308,31.7L308,31.7z M316.7,31.7c0.2,0.4,0.4,0.7,0.4,1c0.1,0.3,0.1,1,0.2,1.8 l0.4,4.5c0.4-0.4,1-1.2,1.7-2.1c0.4-0.5,0.8-1.1,1.3-1.9c0.4-0.5,0.5-0.8,0.6-1c0.1-0.1,0.1-0.2,0.1-0.4c0-0.1,0-0.1-0.1-0.1 s-0.1-0.1-0.4-0.1c-0.2-0.1-0.4-0.1-0.4-0.3c-0.1-0.1-0.2-0.4-0.2-0.5c0-0.2,0.1-0.4,0.2-0.6s0.4-0.2,0.6-0.2 c0.3,0,0.5,0.1,0.7,0.3c0.2,0.2,0.3,0.5,0.3,0.9c0,0.5-0.1,1-0.5,1.7c-0.4,0.6-1,1.6-2,2.9c-1,1.3-2.2,2.7-3.6,4.2 c-1,1.1-1.8,1.8-2.2,2c-0.5,0.3-0.9,0.4-1.2,0.4c-0.2,0-0.4-0.1-0.5-0.2c-0.1-0.1-0.2-0.3-0.2-0.4c0-0.3,0.1-0.4,0.3-0.7 c0.2-0.2,0.4-0.3,0.7-0.3c0.1,0,0.2,0,0.4,0.1c0.1,0,0.1,0.1,0.1,0.3c0.1,0.1,0.1,0.2,0.1,0.3l0.1,0.1c0,0,0.1,0,0.2-0.1 c0.4-0.2,0.7-0.5,1.2-1c0.6-0.6,1.1-1.1,1.4-1.5l-0.5-5.8c-0.1-1-0.2-1.5-0.4-1.8c-0.1-0.2-0.5-0.3-0.9-0.3c-0.1,0-0.4,0-0.7,0 l-0.1-0.3L316.7,31.7z M349.5,34.6c0,1-0.2,1.8-0.7,2.7s-1.2,1.6-2.1,2.1c-1,0.5-1.8,0.8-2.6,0.8c-0.9,0-1.6-0.2-2.2-0.8 c-0.6-0.5-0.8-1.2-0.8-2c0-0.9,0.2-1.8,0.8-2.7c0.5-0.9,1.2-1.6,2.2-2.2c0.9-0.5,1.8-0.7,2.6-0.7c0.9,0,1.5,0.2,2.1,0.7 C349.3,33,349.5,33.8,349.5,34.6 M347.9,34c0-0.6-0.1-1-0.4-1.3s-0.7-0.4-1.1-0.4c-1,0-1.8,0.7-2.6,2c-0.8,1.2-1.2,2.6-1.2,3.8 c0,0.6,0.2,1,0.5,1.3s0.7,0.5,1.2,0.5c1,0,1.8-0.7,2.6-1.9C347.5,36.6,347.9,35.3,347.9,34 M354.6,31.7l-1.3,4.2 c1.2-1.7,2.1-2.9,2.8-3.4c0.7-0.5,1.2-0.7,1.8-0.7c0.4,0,0.6,0.1,0.8,0.3c0.2,0.2,0.3,0.4,0.3,0.8s-0.1,0.9-0.3,1.5l-1.2,3.9 c-0.1,0.4-0.2,0.7-0.2,0.8s0.1,0.1,0.1,0.2c0.1,0.1,0.1,0.1,0.1,0.1s0.1-0.1,0.3-0.1c0.4-0.2,0.7-0.7,1.2-1.2l0.3,0.1 c-0.6,0.8-1.2,1.4-1.8,1.8c-0.4,0.2-0.7,0.4-1,0.4c-0.2,0-0.4-0.1-0.6-0.2c-0.1-0.1-0.2-0.4-0.2-0.6c0-0.3,0.1-0.8,0.3-1.5 l1.1-3.7c0.1-0.4,0.2-0.8,0.2-1.1c0-0.1,0-0.2-0.1-0.3s-0.2-0.1-0.3-0.1c-0.1,0-0.4,0.1-0.7,0.2c-0.5,0.3-1,0.7-1.5,1.4 s-1.1,1.5-1.6,2.4c-0.3,0.5-0.6,1.1-0.7,1.7l-0.5,1.5h-1.5l1.8-5.8c0.2-0.7,0.3-1.1,0.3-1.2s-0.1-0.2-0.2-0.4 c-0.1-0.1-0.3-0.1-0.4-0.1s-0.2,0.1-0.4,0.1l-0.4,0.1l-0.1-0.3L354.6,31.7z M365.3,29.5l-0.7,2.5h1.5l-0.1,0.6h-1.5l-1.7,5.4 c-0.1,0.6-0.3,1-0.3,1.1s0,0.1,0.1,0.2c0.1,0,0.1,0.1,0.1,0.1c0.1,0,0.4-0.1,0.7-0.3c0.1-0.1,0.5-0.5,1-1.1l0.3,0.2 c-0.6,0.8-1.2,1.4-1.7,1.7c-0.4,0.2-0.7,0.4-1.1,0.4c-0.3,0-0.5-0.1-0.7-0.2s-0.3-0.4-0.3-0.7c0-0.4,0.1-0.9,0.3-1.5l1.6-5.3h-1.4 l0.1-0.4c0.7-0.1,1.3-0.4,1.8-0.8s1-1,1.5-1.9L365.3,29.5L365.3,29.5L365.3,29.5z M366.7,32.2l3.3-0.4l-1.4,4.5 c1.2-1.8,2.2-3.1,3.1-3.9c0.6-0.4,1-0.6,1.3-0.6c0.2,0,0.4,0,0.5,0.1c0.1,0.1,0.2,0.3,0.2,0.5c0,0.4-0.1,0.8-0.4,1.2 c-0.1,0.3-0.4,0.4-0.7,0.4c-0.1,0-0.3,0-0.4-0.1s-0.1-0.2-0.2-0.4c0-0.1,0-0.2-0.1-0.2s-0.1-0.1-0.1-0.1c-0.1,0-0.2,0-0.3,0.1 c-0.1,0.1-0.4,0.4-0.7,0.7c-0.6,0.6-1.2,1.4-1.8,2.3c-0.3,0.4-0.5,0.8-0.7,1.4c-0.2,0.7-0.4,1.1-0.4,1.2l-0.3,1.2h-1.5l1.8-5.7 c0.2-0.7,0.3-1.2,0.3-1.5c0-0.1,0-0.2-0.1-0.3s-0.3-0.1-0.5-0.1c-0.1,0-0.4,0-0.7,0.1L366.7,32.2z M381.7,34.6 c0,1-0.3,1.8-0.8,2.7s-1.2,1.6-2.1,2.1c-1,0.5-1.8,0.8-2.6,0.8c-0.9,0-1.6-0.2-2.1-0.8c-0.6-0.5-0.9-1.2-0.9-2 c0-0.9,0.3-1.8,0.8-2.7c0.6-0.9,1.2-1.6,2.2-2.2c1-0.5,1.8-0.7,2.6-0.7c0.9,0,1.5,0.2,2.1,0.7C381.5,33,381.7,33.8,381.7,34.6 M380.1,34c0-0.6-0.1-1-0.4-1.3s-0.7-0.4-1.2-0.4c-1,0-1.8,0.7-2.6,2c-0.8,1.2-1.2,2.6-1.2,3.8c0,0.6,0.1,1,0.4,1.3 s0.7,0.5,1.2,0.5c1,0,1.8-0.7,2.6-1.9C379.7,36.6,380.1,35.3,380.1,34 M388.4,27l-3.3,10.9c-0.1,0.5-0.2,0.9-0.2,1s0,0.1,0.1,0.2 c0.1,0.1,0.1,0.1,0.2,0.1s0.2,0,0.4-0.1c0.3-0.2,0.7-0.7,1-1.2l0.3,0.3c-0.7,0.8-1.2,1.4-1.7,1.7c-0.4,0.2-0.7,0.4-1.1,0.4 c-0.2,0-0.4-0.1-0.6-0.2s-0.2-0.4-0.2-0.5c0-0.2,0.1-0.7,0.3-1.4l2.6-8.6c0.2-0.7,0.3-1.1,0.3-1.2s-0.1-0.3-0.1-0.4 c-0.1-0.1-0.3-0.1-0.6-0.1c-0.1,0-0.4,0.1-0.7,0.1v-0.4L388.4,27z"></path> <path class="st3" d="M390.3,36.6c-0.1,0.3-0.1,0.5-0.1,0.7c0,0.5,0.2,1,0.6,1.4s0.9,0.6,1.5,0.6c0.4,0,0.9-0.1,1.3-0.3 c0.4-0.1,1.1-0.6,1.9-1.2l0.2,0.3c-1.5,1.5-3,2.2-4.4,2.2c-1,0-1.7-0.3-2.1-0.8c-0.5-0.6-0.7-1.2-0.7-1.8c0-0.9,0.3-1.8,0.9-2.9 c0.6-1,1.3-1.7,2.2-2.2c0.9-0.5,1.8-0.7,2.8-0.7c0.7,0,1.2,0.1,1.5,0.4c0.4,0.3,0.5,0.6,0.5,0.9c0,0.5-0.2,1-0.7,1.5 c-0.6,0.6-1.4,1.1-2.5,1.5C392.7,36.2,391.7,36.4,390.3,36.6 M390.4,36.1c1-0.1,1.7-0.3,2.3-0.6c0.8-0.3,1.4-0.7,1.8-1.2 c0.4-0.4,0.6-1,0.6-1.3c0-0.2-0.1-0.4-0.2-0.6c-0.1-0.1-0.4-0.2-0.7-0.2c-0.7,0-1.3,0.3-2,1C391.3,33.9,390.7,34.9,390.4,36.1 M403.9,31.7l-0.6,2.8h-0.4c-0.1-0.8-0.2-1.4-0.6-1.8c-0.3-0.4-0.7-0.5-1.2-0.5c-0.4,0-0.7,0.1-1,0.3c-0.2,0.2-0.4,0.4-0.4,0.7 c0,0.1,0.1,0.4,0.1,0.5c0.1,0.2,0.3,0.4,0.6,0.8c0.8,0.9,1.4,1.5,1.6,2c0.2,0.4,0.4,0.9,0.4,1.2c0,0.7-0.3,1.2-0.8,1.7 c-0.6,0.5-1.2,0.7-2.1,0.7c-0.4,0-1-0.1-1.6-0.3c-0.2-0.1-0.4-0.1-0.5-0.1c-0.3,0-0.5,0.1-0.7,0.4h-0.4l0.6-3h0.4 c0.1,1,0.2,1.6,0.7,2c0.4,0.4,0.9,0.6,1.5,0.6c0.4,0,0.9-0.1,1.2-0.4c0.3-0.3,0.4-0.6,0.4-1c0-0.2,0-0.4-0.1-0.7 c-0.2-0.4-0.6-0.9-1.2-1.5c-0.6-0.7-1-1.2-1.1-1.5s-0.2-0.7-0.2-1c0-0.6,0.2-1.1,0.7-1.5c0.4-0.4,1-0.6,1.8-0.6c0.2,0,0.4,0,0.5,0 s0.3,0.1,0.7,0.2c0.3,0.1,0.5,0.2,0.7,0.2c0.3,0,0.5-0.1,0.7-0.4L403.9,31.7L403.9,31.7z M420.3,31.7l-1.2,4.2 c1.2-1.7,2.1-2.9,2.7-3.4c0.7-0.5,1.2-0.7,1.8-0.7c0.4,0,0.6,0.1,0.8,0.3c0.2,0.2,0.3,0.4,0.3,0.8s-0.1,0.9-0.3,1.5l-1.2,3.9 c-0.1,0.4-0.2,0.7-0.2,0.8s0,0.1,0.1,0.2c0,0.1,0.1,0.1,0.1,0.1c0.1,0,0.2-0.1,0.3-0.1c0.4-0.2,0.7-0.7,1.1-1.2l0.3,0.1 c-0.6,0.8-1.2,1.4-1.7,1.8c-0.4,0.2-0.7,0.4-1,0.4c-0.2,0-0.4-0.1-0.6-0.2c-0.1-0.1-0.2-0.4-0.2-0.6c0-0.3,0.1-0.8,0.4-1.5 l1.2-3.7c0.1-0.4,0.2-0.8,0.2-1.1c0-0.1-0.1-0.2-0.1-0.3c-0.1-0.1-0.1-0.1-0.3-0.1c-0.1,0-0.4,0.1-0.7,0.2c-0.5,0.3-1,0.7-1.5,1.4 s-1,1.5-1.6,2.4c-0.3,0.5-0.6,1.1-0.7,1.7l-0.5,1.5h-1.5l1.8-5.8c0.2-0.7,0.3-1.1,0.3-1.2s-0.1-0.2-0.1-0.4 c-0.1-0.1-0.2-0.1-0.4-0.1c-0.1,0-0.2,0.1-0.4,0.1l-0.4,0.1l-0.1-0.3L420.3,31.7z M431,29.5l-0.7,2.5h1.5l-0.1,0.6h-1.5l-1.7,5.4 c-0.2,0.6-0.3,1-0.3,1.1s0,0.1,0.1,0.2c0.1,0,0.1,0.1,0.1,0.1c0.1,0,0.4-0.1,0.7-0.3c0.1-0.1,0.5-0.5,1-1.1l0.3,0.2 c-0.6,0.8-1.1,1.4-1.7,1.7c-0.4,0.2-0.7,0.4-1.1,0.4c-0.3,0-0.5-0.1-0.7-0.2c-0.1-0.1-0.3-0.4-0.3-0.7c0-0.4,0.1-0.9,0.3-1.5 l1.6-5.3H427l0.1-0.4c0.7-0.1,1.3-0.4,1.8-0.8s1-1,1.6-1.9L431,29.5L431,29.5L431,29.5z M433.7,36.6c0,0.3-0.1,0.5-0.1,0.7 c0,0.5,0.2,1,0.6,1.4s0.9,0.6,1.5,0.6c0.5,0,1-0.1,1.3-0.3c0.4-0.1,1-0.6,1.9-1.2l0.2,0.3c-1.5,1.5-3,2.2-4.4,2.2 c-1,0-1.7-0.3-2.1-0.8c-0.4-0.6-0.7-1.2-0.7-1.8c0-0.9,0.3-1.8,0.9-2.9c0.6-1,1.3-1.7,2.3-2.2c0.9-0.5,1.8-0.7,2.8-0.7 c0.7,0,1.2,0.1,1.5,0.4c0.4,0.3,0.5,0.6,0.5,0.9c0,0.5-0.2,1-0.7,1.5c-0.5,0.6-1.4,1.1-2.5,1.5C436,36.2,435,36.4,433.7,36.6 M433.8,36.1c1-0.1,1.8-0.3,2.3-0.6c0.8-0.3,1.4-0.7,1.8-1.2c0.4-0.4,0.6-1,0.6-1.3c0-0.2-0.1-0.4-0.2-0.6 c-0.1-0.1-0.4-0.2-0.7-0.2c-0.7,0-1.4,0.3-2.1,1C434.6,33.9,434,34.9,433.8,36.1 M446,27l-3.3,10.9c-0.1,0.5-0.2,0.9-0.2,1 s0,0.1,0.1,0.2c0.1,0.1,0.1,0.1,0.2,0.1s0.3,0,0.4-0.1c0.4-0.2,0.7-0.7,1.1-1.2l0.3,0.3c-0.6,0.8-1.2,1.4-1.7,1.7 c-0.4,0.2-0.7,0.4-1.1,0.4c-0.2,0-0.4-0.1-0.6-0.2s-0.2-0.4-0.2-0.5c0-0.2,0.1-0.7,0.3-1.4l2.6-8.6c0.2-0.7,0.4-1.1,0.4-1.2 s-0.1-0.3-0.2-0.4s-0.3-0.1-0.6-0.1c-0.1,0-0.4,0.1-0.7,0.1v-0.4L446,27z M450,28.1c0.2,0,0.5,0.1,0.7,0.3 c0.1,0.1,0.3,0.4,0.3,0.7c0,0.3-0.1,0.4-0.3,0.7c-0.1,0.1-0.4,0.3-0.7,0.3c-0.3,0-0.5-0.1-0.7-0.3c-0.2-0.2-0.3-0.4-0.3-0.7 c0-0.2,0.1-0.5,0.3-0.7C449.5,28.2,449.8,28.1,450,28.1 M450.1,31.7l-1.9,6.4c-0.1,0.4-0.1,0.7-0.1,0.8s0,0.2,0.1,0.3 s0.1,0.1,0.2,0.1s0.2-0.1,0.4-0.1c0.4-0.2,0.7-0.7,1.1-1.2l0.4,0.2c-0.4,0.7-1,1.2-1.5,1.6c-0.4,0.3-0.9,0.5-1.2,0.5 c-0.2,0-0.4-0.1-0.7-0.2c-0.1-0.1-0.2-0.4-0.2-0.6c0-0.2,0.1-0.6,0.2-1.1l1.2-4.1c0.2-0.7,0.3-1.1,0.3-1.2s-0.1-0.2-0.1-0.3 c-0.1-0.1-0.2-0.1-0.4-0.1c-0.1,0-0.4,0-0.9,0.1v-0.4L450.1,31.7z M461.3,32.3l-0.3,1h-1.6c0.1,0.4,0.1,0.7,0.1,1 c0,0.8-0.4,1.5-1.1,2.1c-0.7,0.7-1.8,1-3,1c-0.7,0.2-1.2,0.4-1.5,0.7c-0.1,0.1-0.2,0.2-0.2,0.3s0.1,0.2,0.1,0.4 c0.1,0.1,0.4,0.2,0.9,0.3l1.9,0.4c1,0.2,1.8,0.5,2,0.8c0.4,0.4,0.5,0.7,0.5,1.2s-0.1,1-0.6,1.4c-0.4,0.4-1,0.7-1.7,1 c-0.7,0.2-1.5,0.4-2.5,0.4c-0.8,0-1.5-0.1-2.2-0.3c-0.7-0.1-1.1-0.4-1.4-0.7s-0.4-0.6-0.4-1c0-0.3,0.1-0.5,0.3-0.8 c0.2-0.3,0.4-0.5,0.7-0.7c0.1-0.1,0.7-0.4,1.5-0.8c-0.3-0.2-0.4-0.5-0.4-0.7s0.1-0.5,0.4-0.8s0.8-0.6,1.7-0.9 c-0.7-0.1-1.3-0.4-1.7-0.9c-0.4-0.4-0.6-0.9-0.6-1.5c0-0.9,0.4-1.7,1.2-2.3c0.8-0.7,1.9-1,3.2-1c0.5,0,0.9,0,1.2,0.1 c0.3,0.1,0.6,0.2,0.9,0.4L461.3,32.3L461.3,32.3z M458,33.7c0-0.5-0.1-0.8-0.4-1.2c-0.3-0.3-0.7-0.4-1.1-0.4c-0.7,0-1.3,0.4-1.8,1 c-0.5,0.7-0.7,1.4-0.7,2.2c0,0.4,0.1,0.9,0.4,1.2s0.7,0.4,1.2,0.4c0.4,0,0.7-0.1,1-0.3s0.6-0.4,0.8-0.7c0.2-0.3,0.4-0.7,0.5-1.2 C457.9,34.3,458,34,458,33.7 M453.4,40.1c-0.5,0.2-1,0.5-1.2,0.9c-0.3,0.4-0.4,0.7-0.4,1c0,0.4,0.1,0.7,0.5,1 c0.6,0.4,1.4,0.6,2.5,0.6c1,0,1.7-0.1,2.3-0.4c0.7-0.3,1-0.7,1-1.2c0-0.2-0.1-0.4-0.4-0.7c-0.2-0.2-0.7-0.4-1.4-0.5 C456,40.7,455,40.4,453.4,40.1 M463.3,36.6c-0.1,0.3-0.1,0.5-0.1,0.7c0,0.5,0.2,1,0.6,1.4s0.9,0.6,1.5,0.6c0.4,0,0.9-0.1,1.3-0.3 c0.4-0.1,1.1-0.6,1.9-1.2l0.1,0.3c-1.5,1.5-3,2.2-4.4,2.2c-1,0-1.6-0.3-2.1-0.8c-0.5-0.6-0.7-1.2-0.7-1.8c0-0.9,0.3-1.8,0.9-2.9 c0.6-1,1.3-1.7,2.2-2.2c0.9-0.5,1.8-0.7,2.8-0.7c0.7,0,1.2,0.1,1.5,0.4c0.4,0.3,0.5,0.6,0.5,0.9c0,0.5-0.2,1-0.7,1.5 c-0.5,0.6-1.4,1.1-2.5,1.5C465.6,36.2,464.6,36.4,463.3,36.6 M463.4,36.1c1-0.1,1.8-0.3,2.3-0.6c0.7-0.3,1.4-0.7,1.8-1.2 c0.4-0.4,0.6-1,0.6-1.3c0-0.2-0.1-0.4-0.2-0.6c-0.1-0.1-0.4-0.2-0.7-0.2c-0.7,0-1.3,0.3-2.1,1C464.2,33.9,463.7,34.9,463.4,36.1 M474,31.7l-1.3,4.2c1.2-1.7,2.1-2.9,2.8-3.4c0.7-0.5,1.3-0.7,1.8-0.7c0.4,0,0.7,0.1,0.8,0.3c0.2,0.2,0.3,0.4,0.3,0.8 s-0.1,0.9-0.3,1.5l-1.2,3.9c-0.1,0.4-0.2,0.7-0.2,0.8s0,0.1,0.1,0.2c0.1,0.1,0.1,0.1,0.1,0.1c0.1,0,0.2-0.1,0.3-0.1 c0.4-0.2,0.7-0.7,1.1-1.2l0.3,0.1c-0.6,0.8-1.2,1.4-1.7,1.8c-0.4,0.2-0.7,0.4-1,0.4s-0.4-0.1-0.6-0.2c-0.1-0.1-0.2-0.4-0.2-0.6 c0-0.3,0.1-0.8,0.4-1.5l1.1-3.7c0.1-0.4,0.2-0.8,0.2-1.1c0-0.1-0.1-0.2-0.1-0.3c-0.1-0.1-0.2-0.1-0.3-0.1c-0.1,0-0.4,0.1-0.7,0.2 c-0.4,0.3-1,0.7-1.5,1.4s-1.1,1.5-1.7,2.4c-0.3,0.5-0.6,1.1-0.7,1.7l-0.5,1.5h-1.5l1.8-5.8c0.2-0.7,0.3-1.1,0.3-1.2 s-0.1-0.2-0.1-0.4c-0.1-0.1-0.3-0.1-0.4-0.1s-0.2,0.1-0.4,0.1l-0.4,0.1l-0.1-0.3L474,31.7z M484.7,29.5L484,32h1.5l-0.1,0.6h-1.5 l-1.6,5.4c-0.2,0.6-0.3,1-0.3,1.1s0,0.1,0.1,0.2c0.1,0,0.1,0.1,0.1,0.1c0.2,0,0.4-0.1,0.7-0.3c0.1-0.1,0.5-0.5,1-1.1l0.3,0.2 c-0.6,0.8-1.2,1.4-1.7,1.7c-0.4,0.2-0.7,0.4-1.1,0.4c-0.3,0-0.5-0.1-0.7-0.2s-0.3-0.4-0.3-0.7c0-0.4,0.1-0.9,0.3-1.5l1.6-5.3h-1.5 l0.1-0.4c0.7-0.1,1.2-0.4,1.8-0.8s1-1,1.5-1.9L484.7,29.5L484.7,29.5L484.7,29.5z M487.4,36.6c-0.1,0.3-0.1,0.5-0.1,0.7 c0,0.5,0.2,1,0.6,1.4s0.9,0.6,1.5,0.6c0.4,0,0.9-0.1,1.3-0.3c0.4-0.1,1-0.6,1.9-1.2l0.2,0.3c-1.5,1.5-2.9,2.2-4.4,2.2 c-1,0-1.6-0.3-2.1-0.8c-0.5-0.6-0.7-1.2-0.7-1.8c0-0.9,0.4-1.8,0.9-2.9c0.6-1,1.3-1.7,2.3-2.2c0.9-0.5,1.8-0.7,2.8-0.7 c0.7,0,1.2,0.1,1.5,0.4c0.4,0.3,0.5,0.6,0.5,0.9c0,0.5-0.2,1-0.7,1.5c-0.5,0.6-1.4,1.1-2.5,1.5C489.7,36.2,488.7,36.4,487.4,36.6 M487.5,36.1c1-0.1,1.7-0.3,2.3-0.6c0.8-0.3,1.4-0.7,1.8-1.2c0.4-0.4,0.6-1,0.6-1.3c0-0.2-0.1-0.4-0.2-0.6 c-0.1-0.1-0.4-0.2-0.7-0.2c-0.7,0-1.4,0.3-2.1,1C488.4,33.9,487.8,34.9,487.5,36.1 M501,31.7l-0.6,2.8H500c0-0.8-0.2-1.4-0.5-1.8 c-0.4-0.4-0.7-0.5-1.2-0.5c-0.4,0-0.7,0.1-1,0.3c-0.2,0.2-0.4,0.4-0.4,0.7c0,0.1,0.1,0.4,0.1,0.5c0.1,0.2,0.3,0.4,0.6,0.8 c0.9,0.9,1.4,1.5,1.6,2c0.3,0.4,0.4,0.9,0.4,1.2c0,0.7-0.3,1.2-0.9,1.7c-0.5,0.5-1.2,0.7-2.1,0.7c-0.4,0-1-0.1-1.6-0.3 c-0.2-0.1-0.4-0.1-0.4-0.1c-0.3,0-0.5,0.1-0.7,0.4h-0.3l0.6-3h0.4c0,1,0.2,1.6,0.6,2s0.8,0.6,1.5,0.6c0.5,0,0.9-0.1,1.2-0.4 c0.3-0.3,0.4-0.6,0.4-1c0-0.2-0.1-0.4-0.1-0.7c-0.2-0.4-0.6-0.9-1.1-1.5c-0.6-0.7-1-1.2-1.1-1.5s-0.2-0.7-0.2-1 c0-0.6,0.2-1.1,0.7-1.5c0.4-0.4,1-0.6,1.8-0.6c0.2,0,0.4,0,0.6,0c0.1,0,0.3,0.1,0.7,0.2c0.4,0.1,0.5,0.2,0.7,0.2 c0.3,0,0.5-0.1,0.7-0.4L501,31.7L501,31.7z"></path> </g> </g> </svg> 